<?xml version="1.0" encoding="UTF-8" standalone="no"?>
<!DOCTYPE svg PUBLIC "-//W3C//DTD SVG 1.1//EN"
 "http://www.w3.org/Graphics/SVG/1.1/DTD/svg11.dtd">
<!-- Generated by graphviz version 2.40.1 (20161225.0304)
 -->
<!-- Title: mfimporter Pages: 1 -->
<svg width="1358pt" height="579pt"
 viewBox="0.00 0.00 1358.00 579.00" xmlns="http://www.w3.org/2000/svg" xmlns:xlink="http://www.w3.org/1999/xlink">
<g id="graph0" class="graph" transform="scale(1 1) rotate(0) translate(4 575)">
<title>mfimporter</title>
<polygon fill="#ffffff" stroke="transparent" points="-4,4 -4,-575 1354,-575 1354,4 -4,4"/>
<!-- detail -->
<g id="node1" class="node">
<title>detail</title>
<polygon fill="#efefef" stroke="transparent" points="43,-492.5 43,-527.5 235,-527.5 235,-492.5 43,-492.5"/>
<polygon fill="none" stroke="#000000" points="43,-492.5 43,-527.5 235,-527.5 235,-492.5 43,-492.5"/>
<text text-anchor="start" x="53.7114" y="-505.3" font-family="Arial Bold" font-size="18.00" fill="#000000">detail</text>
<text text-anchor="start" x="96.7206" y="-505.3" font-family="Arial" font-size="14.00" fill="#000000">    </text>
<text text-anchor="start" x="130.9254" y="-505.3" font-family="Arial" font-size="14.00" fill="#666666">[BASE TABLE]</text>
<polygon fill="none" stroke="#000000" points="43,-462.5 43,-492.5 235,-492.5 235,-462.5 43,-462.5"/>
<text text-anchor="start" x="50" y="-473.9" font-family="Arial" font-size="14.00" fill="#000000">id    </text>
<text text-anchor="start" x="95.094" y="-473.9" font-family="Arial" font-size="14.00" fill="#666666">[int(11)]</text>
<polygon fill="none" stroke="#000000" points="43,-432.5 43,-462.5 235,-462.5 235,-432.5 43,-432.5"/>
<text text-anchor="start" x="50" y="-443.9" font-family="Arial" font-size="14.00" fill="#000000">yyyymm_id    </text>
<text text-anchor="start" x="154.1978" y="-443.9" font-family="Arial" font-size="14.00" fill="#666666">[int(11)]</text>
<polygon fill="none" stroke="#000000" points="43,-402.5 43,-432.5 235,-432.5 235,-402.5 43,-402.5"/>
<text text-anchor="start" x="50" y="-413.9" font-family="Arial" font-size="14.00" fill="#000000">date    </text>
<text text-anchor="start" x="111.4432" y="-413.9" font-family="Arial" font-size="14.00" fill="#666666">[date]</text>
<polygon fill="none" stroke="#000000" points="43,-372.5 43,-402.5 235,-402.5 235,-372.5 43,-372.5"/>
<text text-anchor="start" x="50" y="-383.9" font-family="Arial" font-size="14.00" fill="#000000">name    </text>
<text text-anchor="start" x="119.2132" y="-383.9" font-family="Arial" font-size="14.00" fill="#666666">[text]</text>
<polygon fill="none" stroke="#000000" points="43,-342.5 43,-372.5 235,-372.5 235,-342.5 43,-342.5"/>
<text text-anchor="start" x="50" y="-353.9" font-family="Arial" font-size="14.00" fill="#000000">price    </text>
<text text-anchor="start" x="114.5372" y="-353.9" font-family="Arial" font-size="14.00" fill="#666666">[int(11)]</text>
<polygon fill="none" stroke="#000000" points="43,-312.5 43,-342.5 235,-342.5 235,-312.5 43,-312.5"/>
<text text-anchor="start" x="50" y="-323.9" font-family="Arial" font-size="14.00" fill="#000000">fin_ins    </text>
<text text-anchor="start" x="124.6564" y="-323.9" font-family="Arial" font-size="14.00" fill="#666666">[text]</text>
<polygon fill="none" stroke="#000000" points="43,-282.5 43,-312.5 235,-312.5 235,-282.5 43,-282.5"/>
<text text-anchor="start" x="50" y="-293.9" font-family="Arial" font-size="14.00" fill="#000000">l_category    </text>
<text text-anchor="start" x="148.7756" y="-293.9" font-family="Arial" font-size="14.00" fill="#666666">[text]</text>
<polygon fill="none" stroke="#000000" points="43,-252.5 43,-282.5 235,-282.5 235,-252.5 43,-252.5"/>
<text text-anchor="start" x="50" y="-263.9" font-family="Arial" font-size="14.00" fill="#000000">m_category    </text>
<text text-anchor="start" x="157.3296" y="-263.9" font-family="Arial" font-size="14.00" fill="#666666">[text]</text>
<polygon fill="none" stroke="#000000" points="43,-222.5 43,-252.5 235,-252.5 235,-222.5 43,-222.5"/>
<text text-anchor="start" x="50" y="-233.9" font-family="Arial" font-size="14.00" fill="#000000">regist_date    </text>
<text text-anchor="start" x="153.4488" y="-233.9" font-family="Arial" font-size="14.00" fill="#666666">[date]</text>
<polygon fill="none" stroke="#000000" points="43,-192.5 43,-222.5 235,-222.5 235,-192.5 43,-192.5"/>
<text text-anchor="start" x="49.9285" y="-203.9" font-family="Arial" font-size="14.00" fill="#000000">maw_check_date    </text>
<text text-anchor="start" x="193.0519" y="-203.9" font-family="Arial" font-size="14.00" fill="#666666">[date]</text>
<polygon fill="none" stroke="#000000" points="43,-162.5 43,-192.5 235,-192.5 235,-162.5 43,-162.5"/>
<text text-anchor="start" x="50" y="-173.9" font-family="Arial" font-size="14.00" fill="#000000">maw_regist_date    </text>
<text text-anchor="start" x="190.7812" y="-173.9" font-family="Arial" font-size="14.00" fill="#666666">[date]</text>
<polygon fill="none" stroke="#000000" points="43,-132.5 43,-162.5 235,-162.5 235,-132.5 43,-132.5"/>
<text text-anchor="start" x="50" y="-143.9" font-family="Arial" font-size="14.00" fill="#000000">raw_date    </text>
<text text-anchor="start" x="141.7756" y="-143.9" font-family="Arial" font-size="14.00" fill="#666666">[text]</text>
<polygon fill="none" stroke="#000000" points="43,-102.5 43,-132.5 235,-132.5 235,-102.5 43,-102.5"/>
<text text-anchor="start" x="50" y="-113.9" font-family="Arial" font-size="14.00" fill="#000000">raw_price    </text>
<text text-anchor="start" x="144.8696" y="-113.9" font-family="Arial" font-size="14.00" fill="#666666">[text]</text>
<polygon fill="none" stroke="#000000" points="43,-72.5 43,-102.5 235,-102.5 235,-72.5 43,-72.5"/>
<text text-anchor="start" x="50" y="-83.9" font-family="Arial" font-size="14.00" fill="#000000">created_at    </text>
<text text-anchor="start" x="150.3422" y="-83.9" font-family="Arial" font-size="14.00" fill="#666666">[datetime]</text>
<polygon fill="none" stroke="#000000" points="43,-42.5 43,-72.5 235,-72.5 235,-42.5 43,-42.5"/>
<text text-anchor="start" x="50" y="-53.9" font-family="Arial" font-size="14.00" fill="#000000">updated_at    </text>
<text text-anchor="start" x="154.2468" y="-53.9" font-family="Arial" font-size="14.00" fill="#666666">[timestamp]</text>
</g>
<!-- extract_rule -->
<g id="node2" class="node">
<title>extract_rule</title>
<polygon fill="#efefef" stroke="transparent" points="340,-372.5 340,-407.5 575,-407.5 575,-372.5 340,-372.5"/>
<polygon fill="none" stroke="#000000" points="340,-372.5 340,-407.5 575,-407.5 575,-372.5 340,-372.5"/>
<text text-anchor="start" x="346.709" y="-385.3" font-family="Arial Bold" font-size="18.00" fill="#000000">extract_rule</text>
<text text-anchor="start" x="440.723" y="-385.3" font-family="Arial" font-size="14.00" fill="#000000">    </text>
<text text-anchor="start" x="474.9278" y="-385.3" font-family="Arial" font-size="14.00" fill="#666666">[BASE TABLE]</text>
<polygon fill="none" stroke="#000000" points="340,-342.5 340,-372.5 575,-372.5 575,-342.5 340,-342.5"/>
<text text-anchor="start" x="347" y="-353.9" font-family="Arial" font-size="14.00" fill="#000000">id    </text>
<text text-anchor="start" x="392.094" y="-353.9" font-family="Arial" font-size="14.00" fill="#666666">[int(11)]</text>
<polygon fill="none" stroke="#000000" points="340,-312.5 340,-342.5 575,-342.5 575,-312.5 340,-312.5"/>
<text text-anchor="start" x="347" y="-323.9" font-family="Arial" font-size="14.00" fill="#000000">field_name    </text>
<text text-anchor="start" x="449.6648" y="-323.9" font-family="Arial" font-size="14.00" fill="#666666">[text]</text>
<polygon fill="none" stroke="#000000" points="340,-282.5 340,-312.5 575,-312.5 575,-282.5 340,-282.5"/>
<text text-anchor="start" x="347" y="-293.9" font-family="Arial" font-size="14.00" fill="#000000">value    </text>
<text text-anchor="start" x="414.6592" y="-293.9" font-family="Arial" font-size="14.00" fill="#666666">[text]</text>
<polygon fill="none" stroke="#000000" points="340,-252.5 340,-282.5 575,-282.5 575,-252.5 340,-252.5"/>
<text text-anchor="start" x="347" y="-263.9" font-family="Arial" font-size="14.00" fill="#000000">exact_match    </text>
<text text-anchor="start" x="460.5596" y="-263.9" font-family="Arial" font-size="14.00" fill="#666666">[int(11)]</text>
<polygon fill="none" stroke="#000000" points="340,-222.5 340,-252.5 575,-252.5 575,-222.5 340,-222.5"/>
<text text-anchor="start" x="347" y="-233.9" font-family="Arial" font-size="14.00" fill="#000000">category_id    </text>
<text text-anchor="start" x="453.5582" y="-233.9" font-family="Arial" font-size="14.00" fill="#666666">[int(11)]</text>
<polygon fill="none" stroke="#000000" points="340,-192.5 340,-222.5 575,-222.5 575,-192.5 340,-192.5"/>
<text text-anchor="start" x="347" y="-203.9" font-family="Arial" font-size="14.00" fill="#000000">created_at    </text>
<text text-anchor="start" x="447.3422" y="-203.9" font-family="Arial" font-size="14.00" fill="#666666">[datetime]</text>
<polygon fill="none" stroke="#000000" points="340,-162.5 340,-192.5 575,-192.5 575,-162.5 340,-162.5"/>
<text text-anchor="start" x="347" y="-173.9" font-family="Arial" font-size="14.00" fill="#000000">updated_at    </text>
<text text-anchor="start" x="451.2468" y="-173.9" font-family="Arial" font-size="14.00" fill="#666666">[timestamp]</text>
</g>
<!-- gorp_migrations -->
<g id="node3" class="node">
<title>gorp_migrations</title>
<polygon fill="#efefef" stroke="transparent" points="679,-297.5 679,-332.5 949,-332.5 949,-297.5 679,-297.5"/>
<polygon fill="none" stroke="#000000" points="679,-297.5 679,-332.5 949,-332.5 949,-297.5 679,-297.5"/>
<text text-anchor="start" x="685.7076" y="-310.3" font-family="Arial Bold" font-size="18.00" fill="#000000">gorp_migrations</text>
<text text-anchor="start" x="814.7244" y="-310.3" font-family="Arial" font-size="14.00" fill="#000000">    </text>
<text text-anchor="start" x="848.9292" y="-310.3" font-family="Arial" font-size="14.00" fill="#666666">[BASE TABLE]</text>
<polygon fill="none" stroke="#000000" points="679,-267.5 679,-297.5 949,-297.5 949,-267.5 679,-267.5"/>
<text text-anchor="start" x="686" y="-278.9" font-family="Arial" font-size="14.00" fill="#000000">id    </text>
<text text-anchor="start" x="731.094" y="-278.9" font-family="Arial" font-size="14.00" fill="#666666">[varchar(255)]</text>
<polygon fill="none" stroke="#000000" points="679,-237.5 679,-267.5 949,-267.5 949,-237.5 679,-237.5"/>
<text text-anchor="start" x="686" y="-248.9" font-family="Arial" font-size="14.00" fill="#000000">applied_at    </text>
<text text-anchor="start" x="784.7868" y="-248.9" font-family="Arial" font-size="14.00" fill="#666666">[datetime]</text>
</g>
<!-- import_history -->
<g id="node4" class="node">
<title>import_history</title>
<polygon fill="#efefef" stroke="transparent" points="1053,-372.5 1053,-407.5 1307,-407.5 1307,-372.5 1053,-372.5"/>
<polygon fill="none" stroke="#000000" points="1053,-372.5 1053,-407.5 1307,-407.5 1307,-372.5 1053,-372.5"/>
<text text-anchor="start" x="1059.7158" y="-385.3" font-family="Arial Bold" font-size="18.00" fill="#000000">import_history</text>
<text text-anchor="start" x="1172.7162" y="-385.3" font-family="Arial" font-size="14.00" fill="#000000">    </text>
<text text-anchor="start" x="1206.921" y="-385.3" font-family="Arial" font-size="14.00" fill="#666666">[BASE TABLE]</text>
<polygon fill="none" stroke="#000000" points="1053,-342.5 1053,-372.5 1307,-372.5 1307,-342.5 1053,-342.5"/>
<text text-anchor="start" x="1060" y="-353.9" font-family="Arial" font-size="14.00" fill="#000000">id    </text>
<text text-anchor="start" x="1105.094" y="-353.9" font-family="Arial" font-size="14.00" fill="#666666">[int(11)]</text>
<polygon fill="none" stroke="#000000" points="1053,-312.5 1053,-342.5 1307,-342.5 1307,-312.5 1053,-312.5"/>
<text text-anchor="start" x="1060" y="-323.9" font-family="Arial" font-size="14.00" fill="#000000">job_label    </text>
<text text-anchor="start" x="1150.2202" y="-323.9" font-family="Arial" font-size="14.00" fill="#666666">[text]</text>
<polygon fill="none" stroke="#000000" points="1053,-282.5 1053,-312.5 1307,-312.5 1307,-282.5 1053,-282.5"/>
<text text-anchor="start" x="1060" y="-293.9" font-family="Arial" font-size="14.00" fill="#000000">parsed_entry_num    </text>
<text text-anchor="start" x="1210.9032" y="-293.9" font-family="Arial" font-size="14.00" fill="#666666">[int(11)]</text>
<polygon fill="none" stroke="#000000" points="1053,-252.5 1053,-282.5 1307,-282.5 1307,-252.5 1053,-252.5"/>
<text text-anchor="start" x="1060" y="-263.9" font-family="Arial" font-size="14.00" fill="#000000">new_entry_num    </text>
<text text-anchor="start" x="1193.784" y="-263.9" font-family="Arial" font-size="14.00" fill="#666666">[int(11)]</text>
<polygon fill="none" stroke="#000000" points="1053,-222.5 1053,-252.5 1307,-252.5 1307,-222.5 1053,-222.5"/>
<text text-anchor="start" x="1060" y="-233.9" font-family="Arial" font-size="14.00" fill="#000000">created_at    </text>
<text text-anchor="start" x="1160.3422" y="-233.9" font-family="Arial" font-size="14.00" fill="#666666">[datetime]</text>
<polygon fill="none" stroke="#000000" points="1053,-192.5 1053,-222.5 1307,-222.5 1307,-192.5 1053,-192.5"/>
<text text-anchor="start" x="1060" y="-203.9" font-family="Arial" font-size="14.00" fill="#000000">updated_at    </text>
<text text-anchor="start" x="1164.2468" y="-203.9" font-family="Arial" font-size="14.00" fill="#666666">[timestamp]</text>
<polygon fill="none" stroke="#000000" points="1053,-162.5 1053,-192.5 1307,-192.5 1307,-162.5 1053,-162.5"/>
<text text-anchor="start" x="1060" y="-173.9" font-family="Arial" font-size="14.00" fill="#000000">src_file    </text>
<text text-anchor="start" x="1138.5344" y="-173.9" font-family="Arial" font-size="14.00" fill="#666666">[text]</text>
</g>
</g>
</svg>
